<svg xmlns="http://www.w3.org/2000/svg" width="47.295" height="45.273" viewBox="0 0 47.295 45.273">
  <path id="Icon_awesome-key" data-name="Icon awesome-key" d="M47.295,15.563c0,8.6-7.279,15.563-16.258,15.563A17.049,17.049,0,0,1,28,30.854l-2.218,2.389a2.261,2.261,0,0,1-1.657.712H20.691v3.537a2.171,2.171,0,0,1-2.217,2.122H14.78v3.537a2.171,2.171,0,0,1-2.217,2.122H2.217A2.171,2.171,0,0,1,0,43.151v-6.9a2.078,2.078,0,0,1,.649-1.5L15.6,20.441a14.944,14.944,0,0,1-.816-4.878C14.78,6.968,22.058,0,31.037,0,40.042,0,47.295,6.942,47.295,15.563ZM31.037,11.318a4.438,4.438,0,0,0,8.868,0,4.438,4.438,0,0,0-8.868,0Z" fill="#fff"/>
</svg>
